<svg xmlns="http://www.w3.org/2000/svg" width="190" height="56" viewBox="0 0 190 56" fill="none" role="img" aria-label="Artifact OS">
  <title>Artifact OS</title>
  <g transform="translate(0 4.00) scale(0.034433)" fill="#26251E">
      <path d="M1440 1344 c0 -0.6 -3.5 -1 -8.4 -1 -4.7 0 -8.7 -0.4 -9 -0.9 -0.3 -0.5 -2.3 -1.1 -4.3 -1.4 -6.6 -1 -10.8 -2 -11.3 -2.6 -0.3 -0.4 -5.2 -2.2 -11 -4.1 -5.8 -1.9 -10.7 -3.7 -11 -4 -0.3 -0.3 -3.9 -1.6 -8 -3 -4.1 -1.3 -9.3 -3.2 -11.5 -4.1 -2.2 -1 -8.3 -3.2 -13.5 -4.9 -5.2 -1.8 -9.9 -3.5 -10.5 -3.9 -0.5 -0.4 -4.4 -1.8 -8.5 -3.1 -4.1 -1.4 -7.7 -2.7 -8 -3 -0.3 -0.3 -3.9 -1.7 -8 -3 -4.1 -1.3 -7.7 -2.7 -8 -3 -0.3 -0.3 -4.5 -2 -9.5 -3.7 -8.4 -2.9 -13.7 -4.8 -33.7 -12.4 -15.7 -5.9 -23.4 -8.8 -29.3 -10.9 -3.3 -1.2 -7.3 -2.8 -9 -3.5 -1.6 -0.8 -5.2 -2.1 -8 -3 -2.7 -0.9 -6.8 -2.4 -9 -3.4 -2.2 -1 -6 -2.4 -8.5 -3.1 -2.5 -0.8 -4.7 -1.7 -5 -2 -0.3 -0.3 -3.9 -1.7 -8 -3 -4.1 -1.3 -7.7 -2.7 -8 -3 -0.3 -0.3 -2.5 -1.2 -5 -2 -2.5 -0.7 -4.9 -1.7 -5.5 -2.1 -0.5 -0.4 -1.9 -0.9 -3 -1.1 -1.1 -0.1 -2.2 -0.5 -2.5 -0.8 -0.3 -0.3 -3.9 -1.7 -8 -3 -4.1 -1.3 -8.6 -3 -9.9 -3.7 -1.4 -0.6 -2.8 -1 -3.3 -0.7 -0.4 0.3 -0.8 0.1 -0.8 -0.3 0 -0.5 -2.1 -1.5 -4.7 -2.3 -2.6 -0.7 -5.9 -1.9 -7.2 -2.6 -1.4 -0.7 -2.8 -1.1 -3.3 -0.8 -0.4 0.3 -0.8 0.1 -0.8 -0.3 0 -0.5 -2.1 -1.5 -4.7 -2.2 -2.7 -0.8 -5.2 -1.7 -5.8 -2.2 -0.5 -0.4 -1.9 -0.9 -3 -1.1 -1.1 -0.1 -2.2 -0.5 -2.5 -0.8 -0.5 -0.5 -12.3 -4.8 -14.5 -5.3 -0.5 -0.1 -1.2 -0.4 -1.5 -0.7 -0.3 -0.3 -4.5 -1.9 -9.5 -3.7 -12.7 -4.4 -20.4 -7.2 -25 -9.2 -2.2 -1 -6 -2.4 -8.5 -3.1 -2.5 -0.8 -4.7 -1.7 -5 -2 -0.3 -0.3 -2.3 -1.1 -4.5 -1.9 -6.1 -2 -19.5 -7.1 -24.2 -9.2 -2.4 -1.1 -4.6 -1.9 -5 -1.9 -0.8 0 -15.4 -5.6 -21 -8.1 -2.4 -1.1 -4.7 -1.9 -5.3 -1.9 -0.5 0 -2.9 -0.9 -5.2 -1.9 -5.6 -2.5 -22.2 -9.1 -23 -9.1 -1 0 -22.9 -10.8 -27.9 -13.8 -2.6 -1.5 -7.1 -4.2 -10 -6 -3 -1.8 -6.3 -3.8 -7.4 -4.5 -1.1 -0.7 -3.4 -2.3 -5.2 -3.7 -1.8 -1.4 -5.5 -4.3 -8.4 -6.5 -2.9 -2.2 -8.7 -7.1 -12.9 -11 -4.2 -3.8 -9.2 -8.4 -11.1 -10.1 -1.9 -1.6 -4.7 -4.6 -6.3 -6.5 -1.6 -1.9 -4.8 -5.5 -7 -8 -2.3 -2.5 -4.8 -5.4 -5.6 -6.5 -0.8 -1 -3 -3.7 -4.7 -5.9 -6.7 -8.5 -23.3 -37.8 -23.3 -41.2 0 -0.7 -0.4 -1.3 -1 -1.3 -0.5 0 -1 -0.9 -1 -1.9 0 -1.1 -0.4 -2.3 -1 -2.6 -0.5 -0.3 -1 -1.5 -1 -2.6 0 -1 -0.4 -1.9 -1 -1.9 -0.5 0 -1 -1.1 -1 -2.5 0 -1.4 -0.4 -2.5 -1 -2.5 -0.5 0 -1 -1.3 -1 -3 0 -1.6 -0.4 -3 -1 -3 -0.5 0 -1 -1.3 -1 -3 0 -1.6 -0.4 -3 -1 -3 -0.5 0 -1 -1.6 -1 -3.5 0 -1.9 -0.4 -3.5 -1 -3.5 -0.5 0 -1 -1.8 -1 -4 0 -2.2 -0.4 -4 -1 -4 -0.5 0 -1 -2 -1 -4.5 0 -2.5 -0.4 -4.5 -0.9 -4.5 -1.6 0 -2.4 -12.3 -2.3 -37 0 -25.5 0.7 -37 2.3 -37 0.5 0 0.9 -2.2 0.9 -5 0 -2.7 0.5 -5 1 -5 0.6 0 1 -1.6 1 -3.5 0 -1.9 0.5 -3.5 1 -3.5 0.6 0 1 -1.5 1 -3.4 0 -1.9 0.5 -3.8 1 -4.1 0.6 -0.3 1 -1.7 1 -3.1 0 -1.3 0.5 -2.4 1 -2.4 0.6 0 1 -1.1 1 -2.4 0 -1.4 0.5 -2.8 1 -3.1 0.6 -0.3 1 -1.7 1 -3.1 0 -1.3 0.5 -2.4 1 -2.4 0.6 0 1 -0.6 1 -1.3 0 -2.4 10 -22.7 11.2 -22.7 0.4 0 0.8 -0.9 0.8 -2 0 -1.1 0.5 -2 1 -2 0.6 0 1 -0.6 1 -1.3 0 -0.7 0.9 -2.3 2 -3.5 1.1 -1.2 2 -2.7 2 -3.4 0 -0.8 0.9 -2 2 -2.8 1.1 -0.8 2 -1.9 2 -2.5 0 -0.5 1.1 -2.2 2.4 -3.7 1.7 -2.1 3.2 -2.8 6 -2.8 2 0 3.6 0.5 3.6 1 0 0.6 1.2 1 2.6 1 1.4 0 2.3 0.4 1.9 1 -0.3 0.6 0.5 1 1.9 1 1.4 0 2.8 0.4 3.1 1 0.3 0.6 1.7 1 3.1 1 1.4 0 2.2 0.4 1.9 1 -0.4 0.6 0.8 1 3 1 2.2 0 3.4 0.4 3 1 -0.4 0.6 0.7 1 2.4 1 1.7 0 3.1 0.5 3.1 1 0 0.6 1.2 1 2.6 1 1.4 0 2.3 0.4 1.9 1 -0.4 0.6 0.8 1 3 1 2.2 0 3.4 0.4 3 1 -0.4 0.6 0.8 1 3 1 2.2 0 3.4 0.4 3 1 -0.3 0.6 0.5 1 1.9 1 1.4 0 2.8 0.5 3.1 1 0.3 0.6 2.6 1 5 1 2.4 0 4.7 0.5 5 1 0.3 0.6 1.7 1 3 1 1.3 0 2.7 0.4 3 1 0.3 0.6 2.6 1 5 1 2.4 0 4.7 0.5 5 1 0.3 0.6 3 1 6 1 3 0 5.7 0.5 6 1 0.3 0.6 4.2 1 8.5 1 4.3 0 8.2 0.5 8.5 1 0.4 0.6 10 1 25.6 1 15.9 0 24.9 -0.4 24.9 -1 0 -0.6 4.3 -1 11 -1 6.7 0 11 -0.4 11 -1 0 -0.6 3.3 -1 8 -1 4.7 0 8 -0.4 8 -1 0 -0.6 2.7 -1 6 -1 3.3 0 6 -0.4 6 -1 0 -0.5 2.3 -1 5 -1 2.8 0 5 -0.4 5 -1 0 -0.5 1.6 -1 3.5 -1 1.9 0 3.5 -0.4 3.5 -1 0 -0.5 2 -1 4.4 -1 2.5 0 4.8 -0.4 5.1 -1 0.3 -0.5 1.7 -1 3.1 -1 1.3 0 2.4 -0.4 2.4 -1 0 -0.5 1.4 -1 3 -1 1.7 0 3 -0.4 3 -1 0 -0.5 1.6 -1 3.6 -1 2.1 0 3.3 -0.4 2.9 -1 -0.4 -0.6 0.8 -1 3 -1 2.2 0 3.4 -0.4 3 -1 -0.4 -0.6 0.7 -1 2.5 -1 1.8 0 2.9 -0.4 2.5 -1 -0.4 -0.6 0.7 -1 2.4 -1 1.7 0 3.1 -0.4 3.1 -1 0 -0.5 1.4 -1 3 -1 1.7 0 3 -0.4 3 -1 0 -0.5 0.9 -1 2 -1 1.1 0 2 -0.4 2 -1 0 -0.5 1.4 -1 3 -1 1.7 0 3 -0.4 3 -1 0 -0.5 0.9 -1 2 -1 1.1 0 2 -0.4 2 -1 0 -0.5 0.9 -1 2 -1 1.1 0 2 -0.4 2 -1 0 -0.5 0.9 -1 2 -1 1.1 0 2 -0.4 2 -1 0 -0.5 0.9 -1 2 -1 1.1 0 2 -0.4 2 -1 0 -0.5 0.9 -1 2 -1 1.1 0 2 -0.4 2 -1 0 -0.5 0.9 -1 2 -1 1.1 0 2 -0.4 2 -1 0 -0.5 0.9 -1 2 -1 1.1 0 2 -0.4 2 -1 0 -0.5 0.7 -1 1.6 -1 0.9 0 2.5 -1 3.5 -2.2 1.1 -1.2 1.9 -1.6 1.9 -0.8 0 0.8 0.8 0.4 1.9 -0.8 1 -1.2 2.5 -2.2 3.2 -2.2 0.8 0 2.1 -0.9 2.9 -2 0.8 -1.1 2.1 -2 3 -2 0.9 0 2.2 -0.9 3 -2 0.8 -1.1 2.1 -2 3 -2 0.9 0 2.2 -0.9 3 -2 0.8 -1.1 2.1 -2 3 -2 0.9 0 2.2 -0.9 3 -2 0.8 -1.1 2.1 -2 2.8 -2 0.8 0 2.7 -1.3 4.2 -3 1.5 -1.6 3.3 -3 3.9 -3 0.6 0 2.5 -1.3 4.3 -3 1.7 -1.6 3.5 -3 4 -3 0.5 0 2.9 -2 5.4 -4.5 2.4 -2.5 4.9 -4.5 5.4 -4.5 1.3 0 45 -43.7 45 -45 0 -0.6 2.7 -3.8 6 -7 3.3 -3.2 6 -6.4 6 -7 0 -0.6 1.8 -2.9 4 -5 2.2 -2.1 4 -4.3 4 -4.9 0 -0.6 0.5 -1.1 1 -1.1 0.6 0 1 -0.5 1 -1.1 0 -0.6 1.4 -2.4 3 -3.9 1.7 -1.5 3 -3.3 3 -4 0 -0.6 1.8 -2.9 4 -5 2.2 -2.1 4 -4.6 4 -5.4 0 -1.1 0.9 -1.6 2.6 -1.6 2.8 0 5.4 2 5.4 4.2 0 0.8 0.9 2 2 2.8 1.1 0.8 2 2.2 2 3.2 0 1 0.4 1.8 0.9 1.8 0.5 0 1.4 1.4 2.1 3 0.7 1.7 1.6 3 2.1 3 0.5 0 0.9 0.8 0.9 1.8 0 1 0.9 2.4 2 3.2 1.1 0.8 2 2.2 2 3.2 0 1 0.4 1.8 0.9 1.8 0.5 0 1.4 1.4 2.1 3 0.7 1.7 1.6 3 2.1 3 0.5 0 0.9 0.8 0.9 1.8 0 1 0.9 2.4 2 3.2 1.1 0.8 2 2.2 2 3.1 0 1 0.4 1.9 0.9 2.1 0.5 0.1 1.1 1 1.3 1.8 0.2 0.8 1.1 2.2 2.1 3.1 0.9 0.9 1.7 2.2 1.7 2.9 0 0.7 0.8 2 1.8 2.9 0.9 0.9 1.8 2.3 2 3.1 0.2 0.8 0.8 1.7 1.3 1.8 0.5 0.2 0.9 1.1 0.9 2.1 0 0.9 0.9 2.3 2 3.1 1.1 0.8 2 2.2 2 3.2 0 1 0.4 1.8 0.9 1.8 0.5 0 1.4 1.4 2.1 3 0.7 1.7 1.6 3 2.1 3 0.5 0 0.9 0.8 0.9 1.8 0 1 0.9 2.4 2 3.2 1.1 0.8 2 2.2 2 3.1 0 1 0.4 1.9 0.9 2.1 0.5 0.2 1.1 1 1.3 1.8 0.2 0.8 1.1 2.2 2.1 3.1 0.9 0.9 1.7 2.4 1.7 3.3 0 0.9 0.4 1.6 0.9 1.6 0.5 0 1.4 1.3 2.1 3 0.7 1.6 1.6 3 2.1 3 0.5 0 0.9 0.8 0.9 1.8 0 1 0.9 2.4 2 3.2 1.1 0.8 2 2.2 2 3.1 0 1 0.4 1.9 0.9 2.1 0.5 0.2 1.1 1 1.3 1.8 0.2 0.8 1.1 2.2 2.1 3.1 0.9 0.9 1.7 2.4 1.7 3.3 0 0.9 0.4 1.6 0.9 1.6 0.5 0 1.2 0.8 1.6 1.9 0.3 1 1.4 2.9 2.5 4.1 1.1 1.2 1.8 2.6 1.5 2.9 -0.2 0.4 0.5 1.4 1.6 2.1 1 0.8 1.9 2.2 1.9 3.2 0 1 0.4 1.8 0.9 1.8 0.5 0 1.4 1.4 2.1 3 0.7 1.7 1.6 3 2.1 3 0.5 0 0.9 0.9 0.9 2 0 1.1 0.4 2 0.9 2 0.5 0 1.2 0.8 1.6 1.9 0.3 1 1.4 2.9 2.5 4.1 1.1 1.2 1.8 2.6 1.5 2.9 -0.2 0.4 0.5 1.4 1.6 2.1 1 0.8 1.9 2.2 1.9 3.2 0 1 0.4 1.8 0.9 1.8 0.5 0 1.4 1.4 2.1 3 0.7 1.7 1.6 3 2.1 3 0.5 0 0.9 0.9 0.9 2 0 1.1 0.4 2 0.9 2 0.5 0 1.4 1.4 2.1 3 0.7 1.7 1.6 3 2.1 3 0.5 0 0.9 0.8 0.9 1.8 0 1 0.9 2.4 2 3.2 1.1 0.8 2 2.2 2 3.2 0 1 0.4 1.8 0.9 1.8 0.5 0 1.4 1.4 2.1 3 0.7 1.7 1.6 3 2.1 3 0.5 0 0.9 0.7 0.9 1.5 0 0.9 0.9 2.5 2 3.7 1.1 1.2 2 2.8 2 3.5 0 0.7 0.5 1.3 1 1.3 0.6 0 1 0.7 1 1.5 0 0.9 0.9 2.5 2 3.7 1.1 1.2 2 2.8 2 3.5 0 0.7 0.5 1.3 1 1.3 0.6 0 1 0.8 1 1.8 0 1 0.9 2.4 2 3.2 1.1 0.8 2 2.2 2 3.2 0 1 0.5 1.8 1 1.8 0.6 0 1 0.6 1 1.3 0 0.7 0.9 2.3 2 3.5 1.1 1.2 2 2.6 2 3.2 0 0.6 0.9 2 2 3.2 1.1 1.2 2 2.8 2 3.5 0 0.7 0.5 1.3 1 1.3 0.6 0 1 0.7 1 1.5 0 0.9 0.9 2.5 2 3.7 1.1 1.2 2 2.8 2 3.5 0 0.7 0.5 1.3 1 1.3 0.6 0 1 0.9 1 2 0 1.1 0.4 2 0.8 2 0.5 0 1.5 1.2 2.3 2.8 0.8 1.5 1.6 2.9 1.9 3.2 1 1 4.1 6.5 4.7 8.3 0.3 0.9 0.9 1.7 1.4 1.7 0.5 0 0.9 0.7 0.9 1.5 0 0.8 0.5 1.5 1 1.5 0.6 0 1 0.7 1 1.5 0 0.8 0.5 1.5 1 1.5 0.6 0 1 0.7 1 1.5 0 0.9 0.9 2.5 2 3.7 1.1 1.2 2 2.8 2 3.5 0 0.7 0.5 1.3 1 1.3 0.6 0 1 0.7 1 1.5 0 0.9 0.9 2.5 2 3.7 1.1 1.2 2 2.8 2 3.5 0 0.7 0.5 1.3 1 1.3 0.6 0 1 0.7 1 1.5 0 0.8 0.4 1.5 0.8 1.5 0.5 0 1.4 1.6 2.2 3.5 0.8 1.9 1.7 3.5 2.2 3.5 0.4 0 0.8 0.7 0.8 1.5 0 0.8 0.5 1.5 1 1.5 0.6 0 1 0.7 1 1.5 0 0.8 0.5 1.5 1 1.5 0.6 0 1 0.7 1 1.5 0 0.9 0.9 2.5 2 3.7 1.1 1.2 2 2.8 2 3.5 0 0.7 0.5 1.3 1 1.3 0.6 0 1 0.7 1 1.5 0 0.8 0.4 1.5 0.8 1.5 0.5 0 1.4 1.6 2.2 3.5 0.8 1.9 1.7 3.5 2.2 3.5 0.4 0 0.8 0.7 0.8 1.5 0 0.8 0.5 1.5 1 1.5 0.6 0 1 0.7 1 1.5 0 0.8 0.5 1.5 1 1.5 0.6 0 1 0.7 1 1.5 0 0.8 0.4 1.5 0.8 1.5 0.5 0 1.4 1.6 2.2 3.5 0.8 1.9 1.7 3.5 2.2 3.5 0.4 0 0.8 0.7 0.8 1.5 0 0.8 0.3 1.5 0.8 1.5 0.4 0 1.4 1.5 2.2 3.3 0.7 1.7 2.2 4.1 3.2 5.1 1 1.1 1.8 2.6 1.8 3.3 0 0.7 0.5 1.3 1 1.3 0.6 0 1 0.7 1 1.5 0 0.8 0.4 1.5 0.8 1.5 0.5 0 1.4 1.6 2.2 3.5 0.8 1.9 1.7 3.5 2.2 3.5 0.4 0 0.8 0.7 0.8 1.5 0 0.8 0.5 1.5 1 1.5 0.6 0 1 0.7 1 1.5 0 0.8 0.5 1.5 1 1.5 0.6 0 1 0.9 1 2.1 0 1.1 0.4 1.8 0.8 1.5 0.5 -0.3 1.5 1 2.2 2.9 0.8 1.9 1.7 3.5 2.2 3.5 0.4 0 0.8 0.9 0.8 2 0 1.1 0.5 2 1.1 2 0.6 0 0.9 0.6 0.6 1.4 -0.5 1.2 2.7 4.9 3.5 4 0.3 -0.2 1.1 1.2 1.8 3.1 0.8 1.9 1.7 3.5 2.2 3.5 0.4 0 0.8 0.9 0.8 2 0 1.1 0.5 2 1.1 2 0.6 0 0.9 0.6 0.6 1.4 -0.3 0.7 0.2 2 1.1 2.8 2.7 2.4 5.2 5.7 5.2 6.8 0 0.6 0.5 1 1 1 0.6 0 1 0.9 1 2.1 0 1.1 0.4 1.8 0.8 1.5 0.5 -0.3 1.5 1 2.2 2.9 0.8 1.9 1.7 3.5 2.2 3.5 0.4 0 0.8 0.7 0.8 1.5 0 0.8 0.4 1.5 0.8 1.5 0.5 0 1.4 1.6 2.2 3.5 0.8 1.9 1.7 3.5 2.2 3.5 0.4 0 0.8 0.9 0.8 2 0 1.1 0.5 2 1 2 0.6 0 1 0.9 1 2 0 1.1 0.5 2 1 2 0.6 0 1 0.9 1 2 0 1.1 0.5 2 1 2 0.6 0 1 1.1 1 2.5 0 1.4 0.5 2.5 1 2.5 0.6 0 1 0.9 1 2 0 1.1 0.5 2 1 2 0.6 0 1 1.1 1 2.5 0 1.4 0.5 2.5 1 2.5 0.6 0 1 1.6 1 3.5 0 1.9 0.5 3.5 1 3.5 0.6 0 1 1.6 1 3.5 0 1.9 0.5 3.5 1 3.5 0.6 0 1 2.2 1 4.9 0 2.8 0.5 5.3 1 5.6 0.6 0.4 1 7.7 1 18.5 0 10.8 -0.4 18.1 -1 18.5 -0.5 0.3 -1 2.2 -1 4.1 0 2 -0.5 3.4 -1.2 3.4 -0.9 0 -1.2 1.6 -1 5.5 0.3 3.5 0 5.5 -0.7 5.5 -0.6 0 -1.1 1.4 -1.1 3 0 1.7 -0.4 3 -1 3 -0.5 0 -1 0.6 -1 1.3 0 1.8 -2.4 6.7 -3.2 6.7 -0.5 0 -0.8 1.3 -0.8 2.8 0 1.6 -0.9 3.8 -2 5 -1.1 1.2 -2 3.3 -2 4.6 0 1.5 -0.9 3.1 -2 3.8 -1.1 0.7 -2 1.8 -2 2.4 0 2.4 -5.1 11 -8.7 14.9 -0.7 0.8 -1.3 1.6 -1.3 1.9 0 0.7 -4.1 5.5 -8.7 10.2 -1.8 1.8 -3.3 3.8 -3.3 4.4 0 0.5 -0.4 1 -0.8 1 -1.1 0 -4.6 2.8 -10.4 8.3 -2.7 2.6 -5.3 4.7 -5.8 4.7 -0.5 0 -2 1.1 -3.4 2.5 -1.4 1.4 -3.2 2.5 -4.1 2.5 -0.8 0 -1.5 0.4 -1.5 0.9 0 0.5 -1.3 1.4 -3 2.1 -1.6 0.7 -3 1.6 -3 2 0 0.3 -2.2 1.7 -5 3 -2.7 1.3 -5 2.7 -5 3.2 0 0.4 -0.9 0.8 -1.9 0.8 -1.1 0 -2.1 0.4 -2.3 0.9 -0.1 0.5 -1 1.1 -1.8 1.3 -0.8 0.2 -1.7 0.5 -2 0.8 -1.4 1.4 -26.3 10 -27.2 9.4 -0.5 -0.3 -0.8 0 -0.8 0.5 0 0.6 -1.8 1.1 -4 1.1 -2.2 0 -4 0.5 -4 1 0 0.6 -4 1 -10 1 -6 0 -10 0.4 -10 1 0 0.6 -4.2 1 -10.5 1 -6.3 0 -10.5 -0.4 -10.5 -1z"/>
      <path d="M260.3 1343.3 c-4 -0.2 -7.3 -0.7 -7.3 -1.1 0 -0.4 -2.3 -0.9 -5.2 -1 -2.9 -0.1 -5.4 -0.6 -5.7 -1 -0.4 -0.5 -2.6 -0.9 -5.1 -1.1 -2.5 -0.1 -4.6 -0.6 -4.8 -1.2 -0.2 -0.5 -1.7 -0.9 -3.3 -0.9 -1.6 0 -2.9 -0.4 -2.9 -1 0 -0.5 -1.3 -1 -3 -1 -1.6 0 -3 -0.4 -3 -1 0 -0.5 -0.9 -1 -2 -1 -1.1 0 -2.8 -0.4 -3.8 -0.9 -0.9 -0.5 -3 -1.4 -4.7 -2.1 -1.6 -0.7 -3.9 -1.7 -5 -2.3 -1.1 -0.6 -4.4 -2.3 -7.3 -3.9 -3 -1.5 -6.6 -3.7 -8.2 -4.8 -1.5 -1.1 -3.2 -2 -3.7 -2 -0.6 0 -1.8 -0.9 -2.8 -2 -1 -1.1 -2.3 -2 -2.8 -2 -0.6 0 -3.6 -2.4 -6.7 -5.2 -3.2 -2.9 -7 -6.5 -8.6 -7.9 -6.4 -5.7 -22.4 -25.6 -22.4 -27.8 0 -0.6 -0.4 -1.1 -0.8 -1.1 -0.4 0 -1.9 -2.2 -3.3 -5 -1.3 -2.7 -2.7 -5 -3.1 -5 -0.5 0 -0.8 -0.9 -0.8 -2 0 -1.1 -0.4 -2 -1 -2 -0.5 0 -1 -0.9 -1 -2 0 -1.1 -0.4 -2 -1 -2 -0.5 0 -1 -0.7 -1 -1.5 0 -0.8 -0.9 -3 -2 -5 -1.1 -2 -2 -4.4 -2 -5.5 0 -1 -0.5 -2.2 -1 -2.5 -0.6 -0.3 -1 -1.7 -1 -3 0 -1.3 -0.4 -2.7 -1 -3 -0.5 -0.3 -1 -2.3 -1 -4.4 0 -2 -0.4 -4.1 -0.9 -4.6 -2.1 -2.2 -4.1 -40.9 -2.2 -42.8 0.6 -0.6 1.1 -3.7 1.1 -6.8 0 -3.2 0.5 -6.1 1 -6.4 0.6 -0.3 1 -2.2 1 -4.1 0 -1.9 0.5 -3.4 1 -3.4 0.6 0 1 -1.5 1 -3.4 0 -1.9 0.5 -3.8 1 -4.1 0.6 -0.3 1 -1.5 1 -2.6 0 -1 0.4 -2.7 0.9 -3.7 0.9 -1.7 2.4 -5.3 4 -9.4 1.1 -3 4.3 -9.4 6.9 -14 1.2 -2.1 3.2 -5.5 4.3 -7.5 1.2 -2.1 3 -5 4 -6.5 1.1 -1.4 1.9 -2.9 1.9 -3.3 0 -0.3 1.3 -2.6 3 -5 1.6 -2.4 3 -4.6 3 -5 0 -0.4 1.3 -2.6 3 -5 1.6 -2.4 3 -4.8 3 -5.3 0 -0.5 0.9 -1.7 2 -2.7 1.1 -1 2 -2.2 2 -2.7 0 -0.5 1.4 -2.9 3 -5.3 1.7 -2.4 3 -4.6 3 -4.9 0 -0.2 2.3 -3.9 5 -8 2.8 -4.2 5 -7.8 5 -8.1 0 -0.4 1.3 -2.6 3 -5 1.6 -2.4 3 -4.6 3 -4.9 0 -0.2 2.3 -3.9 5 -8 2.8 -4.2 5 -7.8 5 -8 0 -0.3 1.4 -2.5 3 -4.9 1.7 -2.5 3 -4.8 3 -5.1 0 -0.4 0.5 -1.2 1 -1.9 1.5 -1.7 8 -11.8 9.1 -14.2 0.5 -1.1 3.3 -5.7 6.2 -10.2 2.8 -4.5 7 -11 9.1 -14.5 2.1 -3.5 5.4 -8.6 7.2 -11.5 1.9 -2.8 3.4 -5.4 3.4 -5.8 0 -0.3 0.6 -1.2 1.3 -2 0.6 -0.7 2.6 -3.6 4.2 -6.5 1.7 -2.8 5.3 -8.7 8 -13 2.8 -4.4 7.3 -11.6 10 -16 2.8 -4.4 7.2 -11.5 9.9 -15.8 2.7 -4.2 5.9 -9.3 7.1 -11.2 1.9 -3 18.7 -28.8 21.5 -33 0.6 -0.8 1.9 -3 3 -4.7 1.6 -2.7 2.6 -3.3 5.4 -3.3 2.5 0 4.3 -0.9 6.9 -3.4 2 -1.9 3.3 -3.7 3 -4 -0.4 -0.3 0.1 -0.6 1.1 -0.6 0.9 0 1.4 -0.4 1.1 -1 -0.3 -0.5 0.1 -1 1 -1 0.9 0 1.3 -0.4 1 -1 -0.3 -0.5 0.1 -1 1 -1 0.9 0 1.3 -0.4 1 -1 -0.3 -0.5 0.1 -1 1 -1 0.9 0 1.3 -0.4 1 -1 -0.3 -0.5 0.1 -1 1 -1 0.9 0 1.3 -0.4 1 -1 -0.3 -0.6 0.1 -1 1 -1 0.9 0 1.3 -0.4 1 -1 -0.3 -0.5 0.1 -1 1 -1 0.9 0 1.4 -0.4 1 -1 -0.3 -0.5 3.7 -5.2 8.9 -10.4 5.2 -5.2 9.2 -9.7 8.9 -10 -0.4 -0.3 0.1 -0.6 1.1 -0.6 0.9 0 1.4 -0.4 1.1 -1 -0.3 -0.5 0.1 -1 1 -1 0.9 0 1.3 -0.4 1 -1 -0.3 -0.5 0.1 -1 1 -1 0.9 0 1.3 -0.4 1 -1 -0.3 -0.6 0.1 -1 1 -1 0.9 0 1.3 -0.4 1 -1 -0.3 -0.5 0.1 -1 1 -1 0.9 0 1.3 -0.4 1 -1 -0.3 -0.5 0.1 -1 1 -1 0.9 0 1.3 -0.4 1 -1 -0.3 -0.5 0.1 -1 1 -1 0.9 0 1.3 -0.4 1 -1 -0.3 -0.5 0.1 -1 1 -1 0.9 0 1.3 -0.4 1 -1 -0.3 -0.5 0.1 -1 1 -1 0.9 0 1.3 -0.4 1 -1 -0.3 -0.5 0.1 -1 1 -1 0.9 0 1.3 -0.4 1 -1 -0.3 -0.5 0.1 -1 1 -1 0.9 0 1.3 -0.4 1 -1 -0.3 -0.5 0.1 -1 1 -1 0.9 0 1.3 -0.4 1 -1 -0.3 -0.6 0.1 -1 1 -1 0.9 0 1.3 -0.4 1 -1 -0.3 -0.6 0.1 -1 1 -1 0.9 0 1.3 -0.4 1 -1 -0.3 -0.5 0.1 -1 1 -1 0.9 0 1.3 -0.4 1 -1 -0.3 -0.5 0.1 -1 1 -1 0.9 0 1.3 -0.4 1 -1 -0.3 -0.5 0.1 -1 1 -1 0.9 0 1.3 -0.4 1 -1 -0.3 -0.5 -0.2 -1 0.4 -1 0.6 0 3.8 -2.7 7.3 -6 3.4 -3.3 6.8 -6 7.6 -6 0.7 0 1 -0.4 0.7 -1 -0.3 -0.5 0.1 -1 1 -1 0.9 0 1.3 -0.4 1 -1 -0.3 -0.6 0.1 -1 0.9 -1 0.9 0 1.6 -0.4 1.6 -1 0 -0.5 0.6 -1 1.3 -1 0.7 0 1.9 -0.9 2.7 -2 0.8 -1.1 2 -2 2.7 -2 0.7 0 1.3 -0.4 1.3 -1 0 -0.5 0.6 -1 1.3 -1 0.7 0 1.9 -0.9 2.7 -2 0.8 -1.1 2 -2 2.7 -2 0.7 0 1.3 -0.4 1.3 -1 0 -0.5 0.6 -1 1.3 -1 0.7 0 1.9 -0.9 2.7 -2 0.8 -1.1 2 -2 2.7 -2 0.7 0 1.3 -0.4 1.3 -1 0 -0.5 0.7 -1 1.5 -1 0.8 0 1.5 -0.4 1.5 -1 0 -0.5 0.7 -1 1.5 -1 0.8 0 1.5 -0.4 1.5 -1 0 -0.5 0.7 -1 1.5 -1 0.8 0 1.5 -0.4 1.5 -1 0 -0.5 0.7 -1 1.5 -1 0.8 0 1.5 -0.4 1.5 -1 0 -0.5 0.7 -1 1.5 -1 0.8 0 1.5 -0.4 1.5 -1 0 -0.5 0.7 -1 1.5 -1 0.8 0 1.5 -0.4 1.5 -1 0 -0.5 0.7 -1 1.5 -1 0.8 0 1.5 -0.4 1.5 -1 0 -0.5 0.9 -1 2 -1 1.1 0 2 -0.4 2 -1 0 -0.5 0.9 -1 2 -1 1.1 0 2 -0.4 2 -1 0 -0.5 0.7 -1 1.5 -1 0.8 0 1.5 -0.4 1.5 -1 0 -0.5 0.7 -1 1.5 -1 0.8 0 1.5 -0.4 1.5 -1 0 -0.5 0.9 -1 2 -1 1.1 0 2 -0.4 2 -1 0 -0.5 0.9 -1 2 -1 1.1 0 2 -0.4 2 -1 0 -0.5 0.9 -1 2 -1 1.1 0 2 -0.4 2 -1 0 -0.5 1.1 -1 2.5 -1 1.4 0 2.5 -0.4 2.5 -1 0 -0.5 0.9 -1 2 -1 1.1 0 2 -0.4 2 -1 0 -0.5 1.1 -1 2.5 -1 1.4 0 2.5 -0.4 2.5 -1 0 -0.5 1.1 -1 2.5 -1 1.4 0 2.5 -0.4 2.5 -1 0 -0.5 1.1 -1 2.5 -1 1.4 0 2.5 -0.4 2.5 -1 0 -0.5 0.9 -1 2 -1 1.1 0 2 -0.4 2 -1 0 -0.5 1.4 -1 3 -1 1.7 0 3 -0.4 3 -1 0 -0.5 1.1 -1 2.5 -1 1.4 0 2.5 -0.4 2.5 -1 0 -0.5 1.4 -1 3 -1 1.7 0 3 -0.4 3 -1 0 -0.5 1.1 -1 2.5 -1 1.4 0 2.5 -0.4 2.5 -1 0 -0.5 1.4 -1 3 -1 1.7 0 3 -0.4 3 -1 0 -0.5 1.6 -1 3.5 -1 1.9 0 3.5 -0.4 3.5 -1 0 -0.5 1.4 -1 3 -1 1.7 0 3 -0.4 3 -1 0 -0.5 1.6 -1 3.5 -1 1.9 0 3.5 -0.4 3.5 -1 0 -0.5 1.6 -1 3.5 -1 1.9 0 3.5 -0.4 3.5 -1 0 -0.5 1.6 -1 3.5 -1 1.9 0 3.5 -0.4 3.5 -1 0 -0.5 2 -1 4.5 -1 2.5 0 4.5 -0.4 4.5 -1 0 -0.5 2.3 -1 5 -1 2.8 0 5 -0.4 5 -1 0 -0.6 3.3 -1 8 -1 4.7 0 8 -0.4 8 -1 0 -0.6 13.1 -1 37.4 -1 23.9 0 37.7 0.4 38.1 1 0.3 0.6 3.5 1 7 1 3.5 0 6.7 0.5 7 1 0.3 0.6 3 1 6 1 3 0 5.7 0.5 6 1 0.3 0.6 2.4 1 4.5 1 2.1 0 4.2 0.5 4.5 1 0.3 0.6 2.4 1 4.5 1 2.1 0 4.2 0.5 4.5 1 0.3 0.6 1.7 1 3 1 1.3 0 2.7 0.5 3 1 0.3 0.6 1.9 1 3.5 1 1.6 0 3.2 0.5 3.5 1 0.3 0.6 1.5 1 2.6 1 1.9 0 2.8 0.4 7.6 2.8 1.3 0.7 3.2 1.2 4.2 1.2 1.1 0 2.3 0.4 2.6 1 0.3 0.6 1.5 1 2.6 1 1 0 2.7 0.4 3.7 0.9 0.9 0.5 2.9 1.4 4.5 2 1.5 0.6 3.9 1.6 5.5 2.2 1.5 0.6 3.5 1.5 4.4 2 1 0.5 2.7 0.9 3.8 0.9 1.3 0 2 0.7 2 2 0 1.3 -0.7 2 -1.9 2 -1.1 0 -2.3 0.9 -2.6 2 -0.4 1.1 -3.3 4.8 -6.6 8.1 -3.2 3.3 -5.9 6.4 -5.9 6.9 0 0.4 -1.8 2.7 -4 5 -2.2 2.3 -4 4.5 -4 5 0 0.4 -1.3 2.2 -3 4 -1.6 1.8 -3 3.6 -3 4.1 0 0.4 -1.1 1.9 -2.5 3.3 -1.3 1.3 -2.6 3.1 -2.7 3.8 -0.2 0.7 -1.1 2 -2 2.9 -0.9 0.8 -1.8 2.2 -2 2.9 -0.2 0.8 -1.3 2.5 -2.6 3.8 -1.2 1.3 -2 2.7 -1.8 3.1 0.3 0.4 -0.4 1.4 -1.5 2.1 -1 0.8 -1.9 2.2 -1.9 3.2 0 1 -0.4 1.8 -0.9 1.8 -0.5 0 -1.3 0.9 -1.6 2 -0.3 1.1 -1.2 2.6 -1.9 3.2 -0.7 0.7 -3.2 5.1 -5.6 9.8 -2.5 4.7 -4.8 8.7 -5.2 8.8 -0.4 0.2 -0.8 1 -0.8 1.7 0 1.6 -4.2 9.9 -5.2 10.3 -0.5 0.2 -0.8 0.9 -0.8 1.6 0 0.7 -1.3 4 -3 7.4 -1.6 3.4 -3 6.9 -3 7.7 0 0.8 -0.4 1.5 -0.8 1.5 -0.5 0 -1.5 2.2 -2.2 5 -0.7 2.8 -1.8 5 -2.2 5 -0.5 0 -0.7 0.4 -0.4 0.8 0.3 0.5 -0.2 2.1 -1 3.6 -0.7 1.6 -1.4 3.7 -1.4 4.7 0 1 -0.4 2.1 -1 2.4 -0.5 0.3 -1 1.7 -1 3 0 1.3 -0.4 2.7 -1 3 -0.5 0.3 -1 1.9 -1 3.6 0 1.6 -0.4 2.9 -1 2.9 -0.5 0 -1 1.8 -1 4 0 2.2 -0.4 4 -1 4 -0.5 0 -1 1.3 -1 2.9 0 1.7 -0.4 3.3 -1 3.6 -0.5 0.3 -1 2.1 -1 4 0 1.9 -0.4 3.7 -1 4 -0.5 0.3 -1 2.6 -1 5.1 0 2.4 -0.4 4.4 -1 4.4 -0.5 0 -1 2.2 -1 4.8 0 2.6 -0.4 5.2 -0.9 5.8 -0.5 0.5 -1.2 3.4 -1.5 6.4 -0.3 3 -1.1 9.8 -1.7 15 -1.6 12.5 -1.6 69.6 0 81 0.6 4.7 1.4 11 1.7 14 0.3 3 1 5.9 1.5 6.4 0.5 0.6 0.9 2.9 0.9 5.2 0 2.4 0.4 4.6 1 4.9 0.6 0.3 1 2.4 1 4.6 0 2.1 0.5 3.9 1 3.9 0.6 0 1 1.8 1 4 0 2.2 0.5 4 1 4 0.6 0 1 1.5 1 3.4 0 1.9 0.5 3.8 1 4.1 0.6 0.3 1 1.9 1 3.6 0 1.6 0.5 2.9 1 2.9 0.6 0 1 1.4 1 3 0 1.7 0.5 3 1 3 0.6 0 1 1.4 1 3 0 1.7 0.5 3 1 3 0.6 0 1 0.9 1 2 0 1.1 0.4 2.9 1 4 0.6 1.1 1.5 2.9 2 4 0.6 1.1 1 2.9 1 4 0 1.1 0.5 2 1 2 0.6 0 1 0.7 1 1.5 0 0.8 0.4 2.4 1 3.5 0.6 1.1 1.5 2.9 2 4 0.6 1.1 1 2.7 1 3.5 0 0.8 0.5 1.5 1 1.5 0.6 0 1 0.6 1 1.3 0 0.8 2.6 6.5 5.9 12.8 8.5 16.6 10.5 20.2 11.8 21.7 0.7 0.7 2 2.8 2.9 4.7 0.9 1.9 2 3.5 2.5 3.5 0.5 0 0.9 0.6 0.9 1.3 0 1.2 1.6 3.3 11.3 15.7 2.6 3.3 4.7 6.9 4.7 8.1 0 2.8 -2.3 4.9 -5.4 4.9 -1.4 0 -2.8 0.5 -3.1 1 -0.3 0.6 -1.5 1 -2.6 1 -1 0 -2.8 0.5 -3.9 1 -1.1 0.6 -2.9 1.5 -4 2 -1.1 0.6 -2.9 1 -3.9 1 -1.1 0 -2.3 0.5 -2.6 1 -0.3 0.6 -1.5 1 -2.6 1 -1 0 -1.9 0.5 -1.9 1 0 0.6 -0.9 1 -2 1 -1.1 0 -2.8 0.4 -3.8 0.9 -0.9 0.5 -3 1.4 -4.7 2.1 -1.6 0.7 -3.8 1.6 -4.7 2.1 -1 0.5 -2.5 0.9 -3.3 0.9 -0.8 0 -2.3 0.4 -3.3 0.9 -0.9 0.5 -2.8 1.3 -4.2 1.9 -1.4 0.5 -3.8 1.5 -5.3 2.1 -1.6 0.6 -3.3 0.9 -3.8 0.6 -0.5 -0.4 -0.9 -0.2 -0.9 0.3 0 0.9 -10.7 5.1 -14 5.6 -0.8 0.1 -2.5 0.8 -3.8 1.5 -1.2 0.6 -2.7 0.9 -3.2 0.6 -0.6 -0.3 -1 -0.2 -1 0.4 0 0.6 -1.2 1.4 -2.7 1.7 -1.6 0.4 -3.3 1.1 -3.9 1.6 -0.7 0.5 -1.6 0.8 -2 0.7 -0.5 -0.1 -2.7 0.6 -4.9 1.6 -2.2 0.9 -4.4 1.8 -5 1.9 -0.5 0.1 -2 0.8 -3.3 1.4 -1.2 0.7 -2.7 1 -3.2 0.7 -0.6 -0.3 -1 -0.2 -1 0.4 0 0.6 -1.2 1.4 -2.7 1.7 -1.6 0.4 -3.3 1.1 -3.9 1.6 -0.7 0.5 -1.6 0.8 -2 0.7 -0.5 -0.1 -2.7 0.6 -4.9 1.6 -2.2 0.9 -4.4 1.8 -5 1.9 -0.5 0.1 -2 0.7 -3.2 1.4 -1.2 0.7 -2.6 1.1 -3 1 -0.4 -0.1 -1.8 0.3 -3.1 1 -1.2 0.7 -2.6 1 -3.1 0.7 -0.5 -0.3 -1.1 -0.1 -1.3 0.5 -0.2 0.6 -1.3 1.2 -2.5 1.4 -1.2 0.3 -3.1 1 -4.2 1.6 -1.2 0.6 -2.1 0.8 -2.1 0.5 0 -0.3 -1 0 -2.2 0.7 -1.3 0.7 -2.7 1.3 -3.3 1.4 -0.5 0.1 -2.8 0.9 -5 1.9 -2.2 0.9 -4.4 1.8 -5 1.9 -0.5 0.1 -2 0.7 -3.2 1.4 -1.2 0.7 -2.6 1.1 -3 1 -0.4 -0.1 -2.8 0.7 -5.3 1.8 -2.5 1 -4.9 1.7 -5.4 1.6 -0.5 -0.2 -1.6 0.4 -2.6 1.3 -1 0.9 -2.1 1.5 -2.6 1.4 -0.5 -0.1 -2.9 0.6 -5.4 1.7 -2.5 1 -4.9 1.7 -5.4 1.6 -0.5 -0.2 -1.6 0.4 -2.6 1.3 -1 0.9 -2.1 1.5 -2.6 1.4 -0.5 0 -2 0.2 -3.4 0.7 -1.4 0.4 -2.5 0.6 -2.6 0.3 0 -0.2 -0.8 0.4 -1.8 1.4 -1 0.9 -2.2 1.5 -2.7 1.2 -0.4 -0.3 -2 0.2 -3.4 1.1 -1.4 0.9 -2.5 1.3 -2.5 1 0 -0.4 -1.1 0.1 -2.4 0.9 -1.3 0.9 -2.8 1.5 -3.2 1.4 -1.1 -0.3 -4 0.8 -7.6 2.7 -1.5 0.8 -3 1.5 -3.3 1.5 -0.2 0.1 -1.4 0.3 -2.4 0.6 -1.1 0.3 -2.2 0.4 -2.4 0.2 -0.2 -0.2 -1.1 0.4 -2.1 1.4 -1 0.9 -2.2 1.4 -2.7 1.1 -0.6 -0.3 -1.8 0.1 -2.8 1 -1 0.9 -2.2 1.6 -2.7 1.5 -1.1 -0.3 -4 0.8 -7.5 2.7 -1.4 0.7 -2.9 1 -3.3 0.7 -0.4 -0.4 -1.1 -0.1 -1.6 0.6 -0.4 0.8 -1.6 1.5 -2.7 1.6 -2.3 0.3 -5.1 1.3 -8.4 3.1 -1.4 0.7 -2.9 1.1 -3.2 0.8 -0.3 -0.3 -1.7 0.2 -3.1 1.1 -1.4 1 -2.6 1.4 -2.6 0.9 0 -0.4 -0.5 -0.3 -1.2 0.4 -0.7 0.7 -2 1.2 -3 1.2 -1 0 -2.6 0.4 -3.6 0.9 -0.9 0.4 -3 1.5 -4.7 2.3 -1.6 0.9 -3.6 1.3 -4.2 1.1 -0.7 -0.3 -1.3 0 -1.3 0.6 0 0.6 -0.9 1.1 -2 1.1 -2 0 -2.8 0.3 -8.7 3.4 -1.8 0.9 -3.3 1.4 -3.3 1 0 -0.5 -0.5 -0.3 -1.2 0.4 -0.7 0.7 -2 1.2 -3 1.2 -1 0 -2.6 0.4 -3.6 0.9 -2.3 1.2 -6 2.6 -10.2 4.1 -4.2 1.5 -7.9 2.9 -10.2 4.1 -1 0.5 -3.6 0.9 -5.8 0.9 -2.2 0 -4 0.4 -4 0.8 0 1.1 -2.9 2.5 -13 6.5 -1.4 0.5 -3.3 1.3 -4.2 1.8 -1 0.5 -2.5 0.9 -3.3 0.9 -0.8 0 -2.3 0.4 -3.3 0.9 -0.9 0.5 -2.9 1.4 -4.4 2 -1.6 0.6 -4 1.6 -5.5 2.2 -1.6 0.6 -3.6 1.5 -4.5 2 -1 0.5 -2.7 0.9 -3.8 0.9 -1.1 0 -2 0.5 -2 1 0 0.6 -0.9 1 -2 1 -1.1 0 -2.9 0.5 -4 1 -1.1 0.6 -2.9 1.5 -4.1 2.1 -1.1 0.5 -3.8 1.1 -6 1.1 -2.1 0 -3.9 0.4 -3.9 0.9 0 0.5 -1.3 0.9 -3 0.9 -1.6 0 -3 0.5 -3 1 0 0.6 -1.6 1 -3.5 1 -1.9 0 -3.5 0.5 -3.5 1 0 0.6 -1.8 1 -4 1 -2.2 0 -4 0.5 -4 1 0 0.6 -2.8 1 -6.4 1 -3.5 0 -6.6 0.4 -6.8 0.9 -0.4 1 -17.6 1.9 -27.5 1.4z"/>
      <path d="M972.2 726.5 c-0.6 -0.8 -1.7 -2.6 -2.4 -4 -0.6 -1.4 -1.5 -2.5 -1.9 -2.5 -0.4 0 -1.1 -0.9 -1.4 -2.1 -0.4 -1.1 -2.5 -3.9 -4.8 -6.3 -2.3 -2.3 -4.3 -4.8 -4.5 -5.6 -0.2 -0.7 -1.6 -2.5 -3.2 -4 -1.7 -1.6 -3 -3.2 -3 -3.8 0 -0.5 -1.8 -2.8 -4 -5.1 -2.2 -2.2 -4 -4.5 -4 -5 0 -0.5 -1.8 -2.7 -4 -5 -2.2 -2.2 -4 -4.6 -4 -5.1 0 -0.6 -2 -3.1 -4.5 -5.6 -2.5 -2.4 -4.5 -4.9 -4.5 -5.3 0 -0.8 -2.8 -4 -9.5 -11.2 -0.8 -0.9 -1.5 -1.9 -1.5 -2.3 0 -0.4 -1.7 -2.4 -3.8 -4.4 -2.2 -2.1 -4.4 -4.8 -5.1 -6 -0.7 -1.2 -1.6 -2 -2.2 -1.7 -0.5 0.4 -0.9 -0.3 -0.9 -1.4 0 -1.2 -0.7 -2.1 -1.5 -2.1 -0.8 0 -1.5 -0.4 -1.5 -1 0 -2.1 -9.6 -10.3 -20.7 -17.6 -14.3 -9.3 -24.1 -15.4 -25 -15.4 -0.3 0 -1.4 -0.7 -2.3 -1.5 -2.1 -1.9 -33.9 -17.6 -41.5 -20.4 -3.3 -1.3 -6.9 -2.7 -8 -3.1 -8.9 -3.6 -21.1 -7.6 -30.5 -10 -2.5 -0.7 -5.3 -1.6 -6.2 -2.1 -1 -0.5 -2.9 -0.9 -4.2 -0.9 -1.4 0 -2.7 -0.4 -3 -0.9 -0.3 -0.5 -1.8 -1.1 -3.3 -1.4 -2.8 -0.6 -8.1 -1.8 -15.8 -3.8 -15.1 -3.8 -29 -5 -69.5 -5.5 -21.5 -0.3 -34.2 -0.1 -35.5 0.5 -1.1 0.6 -6 1.3 -11 1.5 -15.3 0.9 -22.5 1.7 -22.5 2.7 0 0.5 -2.5 0.9 -5.5 0.9 -3 0 -5.5 0.5 -5.5 1 0 0.6 -2.5 1 -5.5 1 -3 0 -5.5 0.5 -5.5 1 0 0.6 -2 1 -4.5 1 -2.5 0 -4.5 0.5 -4.5 1 0 0.6 -1.8 1 -4 1 -2.2 0 -4 0.5 -4 1 0 0.6 -1.6 1 -3.5 1 -1.9 0 -3.5 0.5 -3.5 1 0 0.6 -1.8 1 -4 1 -2.2 0 -4 0.5 -4 1 0 0.6 -1.6 1 -3.5 1 -1.9 0 -3.5 0.5 -3.5 1 0 0.6 -1.3 1 -3 1 -1.6 0 -3 0.5 -3 1 0 0.6 -1.1 1 -2.5 1 -1.4 0 -2.5 0.5 -2.5 1 0 0.6 -1.1 1 -2.5 1 -1.4 0 -2.5 0.5 -2.5 1 0 0.6 -0.9 1 -2 1 -1.1 0 -2 0.5 -2 1 0 0.6 -1.3 1 -3 1 -1.6 0 -3 0.5 -3 1 0 0.6 -1.1 1 -2.5 1 -1.4 0 -2.5 0.5 -2.5 1 0 0.6 -1.3 1 -3 1 -1.6 0 -3 0.5 -3 1 0 0.6 -0.9 1 -2 1 -1.1 0 -2 0.5 -2 1 0 0.6 -0.9 1 -2 1 -1.1 0 -2 0.5 -2 1 0 0.6 -0.9 1 -2 1 -1.1 0 -2 0.5 -2 1 0 0.6 -0.9 1 -2 1 -1.1 0 -2 0.5 -2 1 0 0.6 -1.1 1 -2.5 1 -1.4 0 -2.5 0.5 -2.5 1 0 0.6 -0.7 1 -1.5 1 -0.8 0 -1.5 0.5 -1.5 1 0 0.6 -0.9 1 -2 1 -1.1 0 -2 0.5 -2 1 0 0.6 -0.9 1 -2 1 -1.1 0 -2 0.5 -2 1 0 0.6 -0.9 1 -2 1 -1.1 0 -2 0.5 -2 1 0 0.6 -0.9 1 -2 1 -1.1 0 -2 0.5 -2 1 0 0.6 -0.9 1 -2 1 -1.1 0 -2 0.5 -2 1 0 0.6 -0.9 1 -2 1 -2.3 0 -2.5 -0.6 -0.8 -2.5 3.4 -3.8 3.8 -4.5 3.8 -6.4 0 -0.5 0.6 -1.6 1.4 -2.3 0.7 -0.8 2.3 -3.2 3.5 -5.4 2.7 -4.8 6.7 -11.4 8.1 -13.4 1 -1.4 2.1 -3.2 8 -13 3.5 -5.9 8.2 -13.5 16.5 -27.1 9.2 -14.9 9.3 -15.1 27.9 -46.2 7.7 -12.8 15.7 -25.8 17.8 -28.9 2.1 -3.1 3.8 -5.9 3.8 -6.3 0 -0.5 2 -3.6 11.7 -18.7 2.3 -3.7 4.3 -7 4.3 -7.3 0 -0.5 2 -3.8 11.7 -18.7 2.3 -3.7 4.3 -7 4.3 -7.3 0 -0.3 2.3 -3.9 5 -8 2.8 -4.1 5 -7.7 5 -8 0 -0.4 1.4 -2.6 3 -5 1.6 -2.4 3 -4.6 3 -5 0 -0.3 2.3 -3.9 5 -8 2.8 -4.1 5 -7.7 5 -8 0 -0.4 1.3 -2.6 3 -5 1.6 -2.4 3 -4.6 3 -5 0 -0.4 1.4 -2.6 3 -5 1.7 -2.4 3 -4.8 3 -5.4 0 -0.6 0.4 -1.1 0.8 -1.1 0.5 0 1.5 -1.2 2.3 -2.7 0.7 -1.6 2.6 -4.7 4.1 -7 1.5 -2.3 2.8 -4.4 2.8 -4.8 0 -0.4 1.4 -2.6 3 -5 1.7 -2.4 3 -4.8 3 -5.3 0 -0.5 0.7 -1.5 1.5 -2.2 0.9 -0.7 2.3 -2.9 3.2 -4.9 1 -2 2.5 -4.5 3.5 -5.5 1 -1.1 1.8 -2.4 1.8 -2.9 0 -0.4 1.4 -2.8 3 -5.2 1.7 -2.4 3 -4.6 3 -5 0 -0.3 0.9 -1.5 2 -2.7 1.1 -1.2 2 -2.8 2 -3.5 0 -0.7 0.5 -1.3 1 -1.3 0.6 0 1 -0.7 1 -1.5 0 -0.9 0.9 -2.5 2 -3.7 1.1 -1.2 2 -2.8 2 -3.5 0 -0.7 0.4 -1.3 0.9 -1.3 0.5 0 1.1 -0.8 1.4 -1.7 0.6 -1.8 3.7 -7.3 4.7 -8.3 0.3 -0.3 1.1 -1.5 1.8 -2.7 3.1 -5.6 3.8 -6.8 5.5 -8.7 0.9 -1.1 1.7 -2.6 1.7 -3.3 0 -0.7 0.4 -1.3 0.9 -1.3 0.5 0 1.1 -0.8 1.4 -1.7 0.6 -1.8 3.7 -7.3 4.7 -8.3 1 -1 4.1 -6.5 4.7 -8.2 0.3 -1 0.9 -1.8 1.4 -1.8 0.5 0 0.9 -0.7 0.9 -1.5 0 -0.8 0.5 -1.5 1 -1.5 0.6 0 1 -0.7 1 -1.5 0 -0.8 0.4 -1.5 0.9 -1.5 0.5 0 1.1 -0.8 1.4 -1.8 0.6 -1.7 3.7 -7.2 4.7 -8.2 0.3 -0.3 1.1 -1.5 1.8 -2.7 0.6 -1.3 1.8 -3.3 2.5 -4.5 0.6 -1.3 1.4 -2.5 1.7 -2.8 1 -1 4.1 -6.5 4.7 -8.2 0.3 -1 0.9 -1.8 1.4 -1.8 0.5 0 0.9 -0.5 0.9 -1.1 0 -0.6 1.4 -3 3 -5.4 1.7 -2.4 3 -4.8 3 -5.4 0 -0.6 0.5 -1.1 1 -1.1 0.6 0 1 -0.7 1 -1.5 0 -0.8 0.5 -1.5 1 -1.5 0.6 0 1 -0.6 1 -1.3 0 -0.7 0.9 -2.3 2 -3.5 1.1 -1.2 2 -2.5 2 -2.9 0 -0.4 1.4 -2.4 3 -4.3 1.6 -1.9 3 -4 3 -4.5 0 -0.6 0.9 -1.7 2 -2.5 1.1 -0.8 2 -2 2 -2.6 0 -0.6 1.4 -2.5 3 -4.2 1.7 -1.8 3 -3.4 3 -3.7 0 -0.7 3 -4.3 7.8 -9.1 2.3 -2.4 4.2 -4.8 4.2 -5.4 0 -0.6 0.5 -0.8 1 -0.5 0.6 0.3 1 0 1 -0.7 0 -0.8 0.9 -2 2.1 -2.8 1.2 -0.8 4.8 -4.1 8.2 -7.2 3.3 -3.2 6.2 -5.6 6.5 -5.4 0.2 0.3 1.5 -0.6 2.8 -1.9 1.3 -1.3 3.3 -2.6 4.4 -3 1.1 -0.3 2 -1.1 2 -1.6 0 -0.5 0.9 -0.9 1.9 -0.9 1.1 0 2.1 -0.4 2.3 -0.9 0.4 -1.2 16.4 -9.1 18.3 -9.1 0.8 0 1.5 -0.4 1.5 -1 0 -0.5 0.9 -1 2 -1 1.1 0 2 -0.4 2 -1 0 -0.5 1.6 -1 3.6 -1 2.1 0 3.3 -0.4 2.9 -1 -0.4 -0.6 1.1 -1 3.9 -1 2.5 0 4.8 -0.4 5.1 -1 0.3 -0.5 1.9 -1 3.6 -1 1.6 0 2.9 -0.4 2.9 -1 0 -0.6 2.8 -1 6.4 -1 3.6 0 6.8 -0.4 7.1 -1 0.8 -1.3 33.2 -1.3 34 -0.1 0.3 0.6 2.8 1 5.6 0.9 2.8 0 5.6 0.5 6.2 1.1 0.6 0.6 3.5 1.1 6.3 1.1 2.9 0 5.6 0.4 5.9 1 0.3 0.5 1.9 1 3.6 1 1.6 0 2.9 0.5 2.9 1 0 0.6 0.9 1 2 1 1.1 0 2.8 0.4 3.8 0.9 0.9 0.5 2.8 1.3 4.2 1.9 5.3 2.1 16 7.7 16 8.4 0 0.5 0.9 0.8 2 0.8 1.1 0 2 0.4 2 0.9 0 0.5 0.8 1.1 1.8 1.4 2.6 0.8 7.5 4 9.3 6 0.9 0.9 2.1 1.7 2.6 1.7 0.5 0 3.1 2 5.8 4.5 2.8 2.5 5.3 4.5 5.7 4.5 1 0 14.7 13.9 17.8 18 1.4 1.8 3.5 4.4 4.8 5.6 1.2 1.3 2.2 2.7 2.2 3.1 0 0.4 1.4 2.4 3 4.3 1.6 1.9 3 4.1 3 4.8 0 0.6 0.4 1.2 0.8 1.2 0.5 0 1.5 1.2 2.3 2.8 0.8 1.5 1.6 2.9 1.9 3.2 1 1 4.1 6.5 4.7 8.3 0.3 0.9 0.9 1.7 1.4 1.7 0.5 0 0.9 0.7 0.9 1.5 0 0.8 0.5 1.5 1 1.5 0.6 0 1 0.7 1 1.5 0 0.8 0.5 1.5 1 1.5 0.6 0 1 0.9 1 2 0 1.1 0.5 2 1 2 0.6 0 1 0.7 1 1.5 0 0.8 0.5 1.5 1 1.5 0.6 0 1 0.7 1 1.5 0 0.8 0.5 1.5 1 1.5 0.6 0 1 0.7 1 1.5 0 0.8 0.4 1.5 0.8 1.5 0.5 0 1.4 1.6 2.2 3.5 0.8 1.9 1.7 3.5 2.2 3.5 0.4 0 0.8 0.5 0.8 1 0 0.6 0.9 2 2 3.2 1.1 1.2 2 2.8 2 3.5 0 0.8 0.8 2.3 1.8 3.4 1.1 1 2.5 3.2 3.3 4.7 0.8 1.5 1.6 2.9 1.9 3.2 0.3 0.3 1.1 1.5 1.8 2.8 3.1 5.5 3.8 6.7 5.5 8.6 0.9 1.1 1.7 2.6 1.7 3.3 0 0.7 0.4 1.3 0.9 1.3 0.5 0 1.1 0.8 1.4 1.8 0.6 1.7 3.7 7.2 4.7 8.2 0.3 0.3 1.1 1.7 1.9 3.2 0.8 1.6 1.8 2.8 2.3 2.8 0.4 0 0.8 0.7 0.8 1.5 0 0.9 0.9 2.5 2 3.7 1.1 1.2 2 2.8 2 3.5 0 0.7 0.5 1.3 1 1.3 0.6 0 1 0.6 1 1.3 0 0.7 0.9 2.3 2 3.5 1.1 1.2 2 2.8 2 3.7 0 0.8 0.5 1.5 1 1.5 0.6 0 1 0.7 1 1.5 0 0.8 0.5 1.5 1 1.5 0.6 0 1 0.7 1 1.5 0 0.8 0.5 1.5 1 1.5 0.6 0 1 0.6 1 1.3 0 0.7 0.9 2.3 2 3.5 1.1 1.2 2 2.8 2 3.7 0 0.8 0.5 1.5 1 1.5 0.6 0 1 0.6 1 1.3 0 0.7 0.9 2.3 2 3.5 1.1 1.2 2 2.8 2 3.7 0 0.8 0.5 1.5 1 1.5 0.6 0 1 0.6 1 1.3 0 0.7 0.9 2.3 2 3.5 1.1 1.2 2 2.8 2 3.7 0 0.8 0.5 1.5 1 1.5 0.6 0 1 0.6 1 1.3 0 0.7 0.9 2.3 2 3.5 1.1 1.2 2 2.8 2 3.7 0 0.8 0.5 1.5 1 1.5 0.6 0 1 0.7 1 1.5 0 0.8 0.5 1.5 1 1.5 0.6 0 1 0.7 1 1.5 0 0.8 0.5 1.5 1 1.5 0.6 0 1 0.9 1 2 0 1.1 0.5 2 1 2 0.6 0 1 0.7 1 1.5 0 0.8 0.5 1.5 1 1.5 0.6 0 1 0.7 1 1.5 0 0.8 0.5 1.5 1 1.5 0.6 0 1 0.9 1 2 0 1.1 0.5 2 1 2 0.6 0 1 0.7 1 1.5 0 0.8 0.5 1.5 1 1.5 0.6 0 1 0.7 1 1.5 0 0.8 0.5 1.5 1 1.5 0.6 0 1 0.9 1 2 0 1.1 0.5 2 1 2 0.6 0 1 0.7 1 1.5 0 0.8 0.5 1.5 1 1.5 0.6 0 1 0.7 1 1.5 0 0.8 0.5 1.5 1 1.5 0.6 0 1 0.9 1 2 0 1.1 0.5 2 1 2 0.6 0 1 0.7 1 1.5 0 0.8 0.5 1.5 1 1.5 0.6 0 1 0.7 1 1.5 0 0.8 0.5 1.5 1 1.5 0.6 0 1 0.9 1 2 0 1.1 0.5 2 1 2 0.6 0 1 0.7 1 1.5 0 0.8 0.5 1.5 1 1.5 0.6 0 1 0.7 1 1.5 0 0.8 0.5 1.5 1 1.5 0.6 0 1 0.9 1 2 0 1.1 0.5 2 1 2 0.6 0 1 0.7 1 1.5 0 0.8 0.5 1.5 1 1.5 0.6 0 1 0.7 1 1.5 0 0.8 0.5 1.5 1 1.5 0.6 0 1 0.7 1 1.5 0 0.8 0.5 1.5 1 1.5 0.6 0 1 0.7 1 1.5 0 0.8 0.5 1.5 1 1.5 0.6 0 1 0.7 1 1.5 0 0.8 0.5 1.5 1 1.5 0.6 0 1 0.7 1 1.5 0 0.8 0.4 1.5 0.8 1.5 0.5 0 1.4 1.6 2.2 3.5 0.8 1.9 1.7 3.5 2.2 3.5 0.4 0 0.8 0.7 0.8 1.5 0 0.8 0.5 1.5 1 1.5 0.6 0 1 0.7 1 1.5 0 0.8 0.5 1.5 1 1.5 0.6 0 1 0.9 1 2 0 1.1 0.5 2 1 2 0.6 0 1 0.7 1 1.5 0 0.8 0.4 1.5 0.8 1.5 0.5 0 1.4 1.6 2.2 3.5 0.8 1.9 1.7 3.5 2.2 3.5 0.4 0 0.8 0.7 0.8 1.5 0 0.8 0.4 1.5 0.8 1.5 0.5 0 1.4 1.6 2.2 3.5 0.8 1.9 1.7 3.5 2.2 3.5 0.4 0 0.8 0.7 0.8 1.5 0 0.8 0.4 1.5 0.8 1.5 0.5 0 1.4 1.6 2.2 3.5 0.7 1.9 1.7 3.2 2.2 2.9 0.4 -0.3 0.8 0.4 0.8 1.5 0 1.2 0.5 2.1 1 2.1 0.6 0 1 0.7 1 1.5 0 0.8 0.5 1.5 1 1.5 0.6 0 1 0.7 1 1.5 0 0.8 0.5 1.5 1 1.5 0.6 0 1 0.6 1 1.3 0 0.7 0.8 2.2 1.8 3.3 1 1 2.4 3.3 3.2 5.1 0.8 1.7 1.8 2.9 2.2 2.7 0.4 -0.3 0.8 0.4 0.8 1.5 0 1.2 0.5 2.1 1 2.1 0.6 0 1 0.7 1 1.5 0 0.8 0.5 1.5 1 1.5 0.6 0 1 0.7 1 1.5 0 0.8 0.4 1.5 0.8 1.5 0.5 0 1.4 1.6 2.2 3.5 0.7 1.9 1.7 3.2 2.2 2.9 0.4 -0.3 0.8 0.4 0.8 1.5 0 1.2 0.5 2.1 1 2.1 0.6 0 1 0.7 1 1.5 0 0.8 0.5 1.5 1 1.5 0.6 0 1 0.7 1 1.5 0 0.8 0.5 1.5 1 1.5 0.6 0 1 0.9 1 2 0 1.1 0.5 2 1 2 0.6 0 1 0.7 1 1.5 0 0.8 0.5 1.5 1 1.5 0.6 0 1 0.7 1 1.5 0 0.8 0.5 1.5 1 1.5 0.6 0 1 0.9 1 2 0 1.1 0.5 2 1 2 0.6 0 1 0.7 1 1.5 0 0.8 0.5 1.5 1 1.5 0.6 0 1 0.7 1 1.5 0 0.8 0.5 1.5 1 1.5 0.6 0 1 0.6 1 1.3 0 0.7 0.9 2.3 2 3.5 1.1 1.2 2 2.7 2 3.4 0 0.8 0.9 2 2 2.8 1.1 0.8 2 2.2 2 3.2 0 1 0.5 1.8 1 1.8 0.6 0 1 2.5 1 5.5 0 3 -0.4 5.5 -1 5.5 -0.5 0 -1 1.4 -1 3 0 1.7 -0.4 3 -1 3 -0.5 0 -1 0.9 -1 2 0 1.1 -0.4 2 -1 2 -0.5 0 -1 1.4 -1 3 0 1.7 -0.4 3 -1 3 -0.5 0 -1 0.9 -1 2 0 1.1 -0.4 2 -1 2 -0.5 0 -1 1.1 -1 2.5 0 1.4 -0.4 2.5 -1 2.5 -0.5 0 -1 1.1 -1 2.5 0 1.4 -0.4 2.5 -1 2.5 -0.5 0 -1 0.9 -1 2 0 1.1 -0.4 2 -1 2 -0.5 0 -1 1.1 -1 2.5 0 1.4 -0.4 2.5 -1 2.5 -0.5 0 -1 0.9 -1 2 0 1.1 -0.4 2 -1 2 -0.5 0 -1 0.9 -1 2 0 1.1 -0.4 2 -1 2 -0.5 0 -1 0.9 -1 2 0 1.1 -0.4 2 -1 2 -0.5 0 -1 0.9 -1 2 0 1.1 -0.4 2 -1 2 -0.5 0 -1 0.9 -1 2 0 1.1 -0.4 2 -1 2 -0.5 0 -1 0.7 -1 1.5 0 0.8 -0.4 1.5 -1 1.5 -0.5 0 -1 0.7 -1 1.5 0 0.8 -0.4 1.5 -1 1.5 -0.5 0 -1 0.9 -1 2 0 1.1 -0.4 2 -1 2 -0.5 0 -1 0.7 -1 1.6 0 0.8 -0.4 1.2 -1 0.9 -0.5 -0.3 -1 0.3 -1 1.4 0 1.2 -0.4 2.1 -1 2.1 -0.5 0 -1 0.7 -1 1.5 0 0.8 -0.4 1.5 -1 1.5 -0.5 0 -1 0.7 -1 1.5 0 0.8 -0.4 1.5 -1 1.5 -0.5 0 -1 0.7 -1 1.5 0 0.8 -0.4 1.5 -1 1.5 -0.5 0 -1 0.5 -1 1.1 0 0.6 -1.3 2.4 -3 3.9 -1.6 1.5 -3 3.3 -3 4 0 0.6 -2.2 3.3 -5 6 -2.7 2.7 -5 5.3 -5 5.9 0 0.6 -0.4 1.1 -1 1.1 -0.5 0 -1 0.5 -1 1.1 0 1.3 -14.8 15.9 -16.2 15.9 -0.5 0 -3.6 2.7 -6.8 6 -3.2 3.3 -6.4 6 -7 6 -0.7 0 -2.5 1.4 -4 3 -1.5 1.7 -3.3 3 -4 3 -0.7 0 -2.5 1.4 -4 3 -1.5 1.7 -3.5 3 -4.3 3 -0.9 0 -1.7 0.4 -1.9 0.9 -0.1 0.5 -1 1.1 -1.8 1.3 -0.8 0.2 -2.2 1.1 -3.1 2.1 -0.9 0.9 -2.2 1.7 -2.8 1.7 -0.7 0 -1.9 0.7 -2.8 1.5 -0.8 0.8 -1.9 1.3 -2.4 1 -0.5 -0.4 -0.9 -0.1 -0.9 0.4 0 0.6 -0.9 1.1 -2 1.1 -1.1 0 -2 0.5 -2 1 0 0.6 -0.9 1 -2.1 1 -1.1 0 -1.7 0.5 -1.4 1 0.4 0.6 -0.5 1 -2 1 -1.5 0 -2.4 0.4 -2 1 0.3 0.6 -0.3 1 -1.4 1 -1.2 0 -2.1 0.5 -2.1 1 0 0.6 -1.2 1 -2.6 1 -1.4 0 -2.3 0.4 -1.9 1 0.4 0.6 -0.5 1 -1.9 1 -1.4 0 -2.6 0.5 -2.6 1 0 0.6 -0.9 1 -2 1 -1.1 0 -2 0.5 -2 1 0 0.6 -1.2 1 -2.6 1 -1.4 0 -2.3 0.4 -1.9 1 0.4 0.6 -0.8 1 -2.9 1 -2 0 -3.6 0.5 -3.6 1 0 0.6 -1.3 1 -3 1 -1.6 0 -3 0.5 -3 1 0 0.6 -1.6 1 -3.5 1 -1.9 0 -3.5 0.5 -3.5 1 0 0.6 -1.3 1 -3 1 -1.6 0 -3 0.5 -3 1 0 0.6 -2.7 1 -6 1 -3.3 0 -6 0.4 -6 1 0 0.6 -2.2 1 -5 1 -2.7 0 -5 0.5 -5 1 0 0.6 -3 1 -7 1 -4 0 -7 0.4 -7 1 0 0.6 -5.9 1 -15.7 1 -12.4 -0.1 -16.1 -0.4 -17.1 -1.5z"/>
      <path d="M1432.5 1344 c-0.4 -0.6 1 -1 3.4 -1 2.3 0 4.1 0.5 4.1 1 0 0.6 -1.5 1 -3.4 1 -1.9 0 -3.8 -0.4 -4.1 -1z"/>
      <path d="M1461 1344 c0 -0.6 2.5 -1 5.8 -0.9 4.1 0 5.1 0.3 3.7 0.9 -2.8 1.2 -9.5 1.2 -9.5 0z"/>
      <path d="M288 1342 c0 -0.5 1.6 -1 3.6 -1 2.1 0 3.3 0.4 2.9 1 -0.3 0.6 -1.9 1 -3.6 1 -1.6 0 -2.9 -0.4 -2.9 -1z"/>
      <path d="M238.1 1340.1 c-0.9 -0.6 -0.5 -0.8 1.3 -0.8 1.4 0 2.6 0.3 2.6 0.8 0 1.1 -2.1 1.1 -3.9 0z"/>
      <path d="M301 1340 c0 -0.5 1.2 -1 2.6 -1 1.4 0 2.3 0.4 1.9 1 -0.3 0.6 -1.5 1 -2.6 1 -1 0 -1.9 -0.4 -1.9 -1z"/>
      <path d="M309 1338 c0 -0.5 0.9 -1 2 -1 1.1 0 2 0.5 2 1 0 0.6 -0.9 1 -2 1 -1.1 0 -2 -0.4 -2 -1z"/>
      <path d="M316 1336 c0 -0.5 0.9 -1 2.1 -1 1.1 0 1.7 0.5 1.4 1 -0.3 0.6 -1.3 1 -2.1 1 -0.8 0 -1.4 -0.4 -1.4 -1z"/>
      <path d="M322 1334 c0 -0.5 0.7 -1 1.5 -1 0.8 0 1.5 0.5 1.5 1 0 0.6 -0.7 1 -1.5 1 -0.8 0 -1.5 -0.4 -1.5 -1z"/>
      <path d="M386 1310 c0 -0.5 0.9 -1 2.1 -1 1.1 0 1.7 0.5 1.4 1 -0.3 0.6 -1.3 1 -2.1 1 -0.8 0 -1.4 -0.4 -1.4 -1z"/>
      <path d="M1597 1247.5 c0 -0.8 0.5 -1.5 1 -1.5 0.6 0 1 0.7 1 1.5 0 0.8 -0.4 1.5 -1 1.5 -0.5 0 -1 -0.7 -1 -1.5z"/>
      <path d="M1604.7 1223.1 c-0.3 -1.4 0 -2.1 0.9 -2.1 1.6 0 1.8 0.9 0.5 2.8 -0.6 1 -1 0.9 -1.4 -0.7z"/>
      <path d="M961.5 861 c-0.4 -0.6 0.7 -1 2.4 -1 1.7 0 3.1 0.5 3.1 1 0 0.6 -1.1 1 -2.4 1 -1.4 0 -2.8 -0.4 -3.1 -1z"/>
      <path d="M1004 861 c0 -0.5 1.8 -1 4 -1 2.2 0 4 0.5 4 1 0 0.6 -1.8 1 -4 1 -2.2 0 -4 -0.4 -4 -1z"/>
      <path d="M944.5 859 c-0.3 -0.5 0.3 -1 1.4 -1 1.2 0 2.1 0.5 2.1 1 0 0.6 -0.6 1 -1.4 1 -0.8 0 -1.8 -0.4 -2.1 -1z"/>
      <path d="M1031 859 c0 -0.5 0.7 -1 1.5 -1 0.8 0 1.5 0.5 1.5 1 0 0.6 -0.7 1 -1.5 1 -0.8 0 -1.5 -0.4 -1.5 -1z"/>
      <path d="M932.5 857 c-0.3 -0.5 0.3 -1 1.4 -1 1.2 0 2.1 0.5 2.1 1 0 0.6 -0.6 1 -1.4 1 -0.8 0 -1.8 -0.4 -2.1 -1z"/>
      <path d="M1047 857 c0 -0.5 0.7 -1 1.5 -1 0.8 0 1.5 0.5 1.5 1 0 0.6 -0.7 1 -1.5 1 -0.8 0 -1.5 -0.4 -1.5 -1z"/>
      <path d="M1058.5 855 c-0.3 -0.5 0.3 -1 1.4 -1 1.2 0 2.1 0.5 2.1 1 0 0.6 -0.6 1 -1.4 1 -0.8 0 -1.8 -0.4 -2.1 -1z"/>
      <path d="M1068.5 853 c-0.3 -0.5 0.3 -1 1.4 -1 1.2 0 2.1 0.5 2.1 1 0 0.6 -0.6 1 -1.4 1 -0.8 0 -1.8 -0.4 -2.1 -1z"/>
      <path d="M821.5 92 c0.3 -0.5 1.3 -1 2.1 -1 0.8 0 1.2 0.5 0.9 1 -0.3 0.6 -1.3 1 -2.1 1 -0.8 0 -1.2 -0.4 -0.9 -1z"/>
      <path d="M890.5 90 c-0.8 -1.3 1.5 -1.3 3.5 0 1.2 0.8 1.1 1 -0.7 1 -1.2 0 -2.5 -0.4 -2.8 -1z"/>
      <path d="M840.5 88 c0.3 -0.5 1.5 -1 2.6 -1 1.1 0 1.7 0.5 1.4 1 -0.3 0.6 -1.5 1 -2.6 1 -1.1 0 -1.7 -0.4 -1.4 -1z"/>
      <path d="M878.5 88 c-0.4 -0.6 0.8 -1 3 -1 2.2 0 3.4 0.4 3 1 -0.3 0.6 -1.7 1 -3 1 -1.3 0 -2.7 -0.4 -3 -1z"/>
      <path d="M948 859 c0 -0.5 0.9 -1 2 -1 1.1 0 2 0.5 2 1 0 0.6 -0.9 1 -2 1 -1.1 0 -2 -0.4 -2 -1z"/>
      <path d="M1025 859 c0 -0.5 1.4 -1 3 -1 1.7 0 3 0.5 3 1 0 0.6 -1.3 1 -3 1 -1.6 0 -3 -0.4 -3 -1z"/>
      <path d="M1043 857 c0 -0.5 0.9 -1 2 -1 1.1 0 2 0.5 2 1 0 0.6 -0.9 1 -2 1 -1.1 0 -2 -0.4 -2 -1z"/>
      <path d="M924 855 c0 -0.5 0.9 -1 2 -1 1.1 0 2 0.5 2 1 0 0.6 -0.9 1 -2 1 -1.1 0 -2 -0.4 -2 -1z"/>
  </g>
  <text x="72.7" y="29.0" fill="#26251E" font-family="ui-sans-serif, system-ui, -apple-system, Segoe UI, sans-serif" font-size="20" font-weight="600" letter-spacing="-0.03em" dominant-baseline="middle">Artifact OS</text>
</svg>
